<svg width="300" height="250" xmlns="http://www.w3.org/2000/svg">
 <g>
  <title>Layer 1</title>
  <rect fill="none" stroke="#9999b2" opacity="NaN" x="359" y="85" width="0" height="0" id="svg_2"/>
  <ellipse fill="#9999b2" opacity="NaN" cx="450" cy="206" id="svg_3"/>
  <ellipse fill="#9999b2" opacity="NaN" cx="443" cy="175" id="svg_4"/>
  <ellipse fill="#9999b2" opacity="NaN" cx="440" cy="192" id="svg_5"/>
  <ellipse fill="#9999b2" opacity="NaN" cx="418" cy="174" id="svg_6"/>
  <ellipse fill="none" stroke="#9999b2" opacity="NaN" cx="451" cy="187" id="svg_7"/>
  <ellipse fill="#9999b2" opacity="NaN" cx="495" cy="143" id="svg_8"/>
  <ellipse fill="#9999b2" opacity="NaN" cx="421" cy="136" id="svg_9"/>
  <ellipse fill="#9999b2" opacity="NaN" cx="428" cy="171" id="svg_10"/>
  <ellipse fill="#9999b2" opacity="NaN" cx="428" cy="171" id="svg_11"/>
  <ellipse fill="#9999b2" opacity="NaN" cx="428" cy="171" id="svg_12"/>
  <ellipse fill="#9999b2" opacity="NaN" cx="470" cy="205" id="svg_13"/>
  <path id="svg_15" d="m498,171" opacity="NaN" fill="#9999b2"/>
  <path fill="#9999b2" d="m10.83966,23.58822c-3.13977,28.48181 -8.56963,60.01706 4.32113,100.33093c-8.97078,33.30863 1.60292,83.75766 30.8,110.4c108.92157,-76.63344 207.2,-1.2 207.2,-1.2c9.43786,-6.171 48.01707,-67.63903 30,-107.90488c12.97561,-64.39772 6.43902,-79.71008 6,-100.81512c-0.60976,-1.50927 -58.16438,-5.00603 -79.80822,12.75616c-16.98974,-7.74794 -64.39045,-22.61918 -119.1884,-1.05205c-41.83279,-15.19268 -64.27727,-11.25111 -79.32451,-12.51504z" id="svg_18"/>
 </g>

</svg>