<svg width="32" height="35" xmlns="http://www.w3.org/2000/svg">
 <g>
  <title>Layer 1</title>
  <rect id="svg_2" height="0" width="0" y="85" x="359" opacity="NaN" stroke="#9999b2" fill="none"/>
  <ellipse id="svg_3" cy="206" cx="450" opacity="NaN" fill="#9999b2"/>
  <ellipse id="svg_4" cy="175" cx="443" opacity="NaN" fill="#9999b2"/>
  <ellipse id="svg_5" cy="192" cx="440" opacity="NaN" fill="#9999b2"/>
  <ellipse id="svg_6" cy="174" cx="418" opacity="NaN" fill="#9999b2"/>
  <ellipse id="svg_7" cy="187" cx="451" opacity="NaN" stroke="#9999b2" fill="none"/>
  <ellipse id="svg_8" cy="143" cx="495" opacity="NaN" fill="#9999b2"/>
  <ellipse id="svg_9" cy="136" cx="421" opacity="NaN" fill="#9999b2"/>
  <ellipse id="svg_10" cy="171" cx="428" opacity="NaN" fill="#9999b2"/>
  <ellipse id="svg_11" cy="171" cx="428" opacity="NaN" fill="#9999b2"/>
  <ellipse id="svg_12" cy="171" cx="428" opacity="NaN" fill="#9999b2"/>
  <ellipse id="svg_13" cy="205" cx="470" opacity="NaN" fill="#9999b2"/>
  <path fill="#9999b2" opacity="NaN" d="m498,171" id="svg_15"/>
  <path stroke="null" id="svg_18" d="m1.84489,7.39923c-0.32271,2.92739 -0.8808,6.16862 0.44413,10.31212c-0.92203,3.4235 0.16475,8.60871 3.16566,11.34703c11.19508,-7.87647 21.29625,-0.12334 21.29625,-0.12334c0.97003,-0.63426 4.93525,-6.95201 3.08343,-11.09058c1.33365,-6.61887 0.66181,-8.19269 0.61669,-10.36189c-0.06267,-0.15512 -5.9782,-0.51453 -8.20278,1.31109c-1.74622,-0.79634 -6.61812,-2.32482 -12.25032,-0.10813c-4.29962,-1.56152 -6.60649,-1.1564 -8.15306,-1.28631z" fill="#9999b2"/>
 </g>

</svg>